<svg width="28" height="28" viewBox="0 0 28 28" fill="none" xmlns="http://www.w3.org/2000/svg">
<g id="vuesax/outline/call-calling">
<g id="call-calling">
<path id="Vector" d="M20.3583 26.5416C19.04 26.5416 17.6516 26.2266 16.2166 25.62C14.8166 25.025 13.405 24.2083 12.0283 23.2166C10.6633 22.2133 9.34498 21.0933 8.09665 19.8683C6.85998 18.62 5.73998 17.3016 4.74831 15.9483C3.74498 14.5483 2.93998 13.1483 2.36831 11.795C1.76165 10.3483 1.45831 8.94831 1.45831 7.62998C1.45831 6.71998 1.62165 5.85665 1.93665 5.05165C2.26331 4.22331 2.78831 3.45331 3.49998 2.78831C4.39831 1.90165 5.42498 1.45831 6.52165 1.45831C6.97665 1.45831 7.44331 1.56331 7.83998 1.74998C8.29498 1.95998 8.67998 2.27498 8.95998 2.69498L11.6666 6.50998C11.9116 6.84831 12.0983 7.17498 12.2266 7.50165C12.3783 7.85165 12.46 8.20165 12.46 8.53998C12.46 8.98331 12.3316 9.41498 12.0866 9.82331C11.9116 10.1383 11.6433 10.4766 11.305 10.815L10.5116 11.6433C10.5233 11.6783 10.535 11.7016 10.5466 11.725C10.6866 11.97 10.9666 12.39 11.5033 13.02C12.075 13.6733 12.6116 14.2683 13.1483 14.8166C13.8366 15.4933 14.4083 16.03 14.945 16.4733C15.61 17.0333 16.0416 17.3133 16.2983 17.4416L16.275 17.5L17.1266 16.66C17.4883 16.2983 17.8383 16.03 18.1766 15.855C18.8183 15.4583 19.635 15.3883 20.4516 15.7266C20.755 15.855 21.0816 16.03 21.4316 16.275L25.305 19.0283C25.7366 19.32 26.0516 19.6933 26.2383 20.1366C26.4133 20.58 26.495 20.9883 26.495 21.3966C26.495 21.9566 26.3666 22.5166 26.1216 23.0416C25.8766 23.5666 25.5733 24.0216 25.1883 24.4416C24.5233 25.1766 23.8 25.7016 22.96 26.04C22.155 26.3666 21.28 26.5416 20.3583 26.5416ZM6.52165 3.20831C5.87998 3.20831 5.28498 3.48831 4.71331 4.04831C4.17665 4.54998 3.80331 5.09831 3.56998 5.69331C3.32498 6.29998 3.20831 6.94165 3.20831 7.62998C3.20831 8.71498 3.46498 9.89331 3.97831 11.1066C4.50331 12.3433 5.23831 13.6266 6.17165 14.91C7.10498 16.1933 8.16665 17.4416 9.33331 18.62C10.5 19.775 11.76 20.8483 13.055 21.7933C14.315 22.715 15.61 23.4616 16.8933 23.9983C18.8883 24.85 20.755 25.0483 22.295 24.4066C22.89 24.1616 23.415 23.7883 23.8933 23.2516C24.1616 22.96 24.3716 22.645 24.5466 22.2716C24.6866 21.98 24.7566 21.6766 24.7566 21.3733C24.7566 21.1866 24.7216 21 24.6283 20.79C24.5933 20.72 24.5233 20.5916 24.3016 20.44L20.4283 17.6866C20.195 17.5233 19.985 17.4066 19.7866 17.325C19.53 17.22 19.425 17.115 19.0283 17.36C18.795 17.4766 18.585 17.6516 18.3516 17.885L17.465 18.76C17.01 19.2033 16.31 19.3083 15.7733 19.11L15.4583 18.97C14.98 18.7133 14.42 18.3166 13.8016 17.7916C13.2416 17.3133 12.635 16.7533 11.9 16.03C11.3283 15.4466 10.7566 14.8283 10.1616 14.14C9.61331 13.4983 9.21665 12.95 8.97165 12.495L8.83165 12.145C8.76165 11.8766 8.73831 11.725 8.73831 11.5616C8.73831 11.1416 8.88998 10.7683 9.18165 10.4766L10.0566 9.56665C10.29 9.33331 10.465 9.11165 10.5816 8.91331C10.675 8.76165 10.71 8.63331 10.71 8.51665C10.71 8.42331 10.675 8.28331 10.6166 8.14331C10.535 7.95665 10.4066 7.74665 10.2433 7.52498L7.53665 3.69831C7.41998 3.53498 7.27998 3.41831 7.10498 3.33665C6.91831 3.25498 6.71998 3.20831 6.52165 3.20831ZM16.275 17.5116L16.0883 18.305L16.4033 17.4883C16.345 17.4766 16.2983 17.4883 16.275 17.5116Z" fill="#10002B"/>
<path id="Vector_2" d="M21.5833 11.375C21.105 11.375 20.7083 10.9784 20.7083 10.5C20.7083 10.08 20.2883 9.20502 19.5883 8.45835C18.9 7.72335 18.1417 7.29169 17.5 7.29169C17.0217 7.29169 16.625 6.89502 16.625 6.41669C16.625 5.93835 17.0217 5.54169 17.5 5.54169C18.6317 5.54169 19.8217 6.14835 20.86 7.25669C21.8283 8.29502 22.4583 9.56669 22.4583 10.5C22.4583 10.9784 22.0617 11.375 21.5833 11.375Z" fill="#10002B"/>
<path id="Vector_3" d="M25.6667 11.375C25.1883 11.375 24.7917 10.9783 24.7917 10.5C24.7917 6.47498 21.525 3.20831 17.5 3.20831C17.0217 3.20831 16.625 2.81165 16.625 2.33331C16.625 1.85498 17.0217 1.45831 17.5 1.45831C22.4817 1.45831 26.5417 5.51831 26.5417 10.5C26.5417 10.9783 26.145 11.375 25.6667 11.375Z" fill="#10002B"/>
</g>
</g>
</svg>
