<svg width="30" height="30" viewBox="0 0 30 30" fill="none" xmlns="http://www.w3.org/2000/svg">
<g clip-path="url(#clip0_226_1015)">
<path d="M21.776 0H8.22404C3.6893 0 0 3.6893 0 8.2241V21.776C0 26.3108 3.6893 30 8.22404 30H21.776C26.3108 30 30 26.3108 30 21.776V8.2241C30 3.6893 26.3108 0 21.776 0ZM28.2284 21.776C28.2284 25.3338 25.3339 28.2284 21.776 28.2284H8.22404C4.66617 28.2284 1.77164 25.3339 1.77164 21.776V8.2241C1.77164 4.66617 4.66617 1.77164 8.22404 1.77164H21.776C25.3339 1.77164 28.2284 4.66617 28.2284 8.2241V21.776Z" fill="#EBD9FC"/>
<path d="M15.0001 6.77148C10.463 6.77148 6.77173 10.4627 6.77173 14.9999C6.77173 19.537 10.4629 23.2282 15.0001 23.2282C19.5373 23.2282 23.2285 19.537 23.2285 14.9998C23.2285 10.4627 19.5373 6.77148 15.0001 6.77148ZM15.0001 21.4567C11.4398 21.4567 8.54331 18.5601 8.54331 14.9998C8.54331 11.4395 11.4398 8.54301 15.0001 8.54301C18.5604 8.54301 21.457 11.4396 21.457 14.9999C21.457 18.5601 18.5604 21.4567 15.0001 21.4567Z" fill="#EBD9FC"/>
<path d="M23.7207 3.7793C22.3422 3.7793 21.2207 4.90084 21.2207 6.27932C21.2207 7.65779 22.3422 8.77928 23.7207 8.77928C25.0991 8.77928 26.2206 7.65773 26.2206 6.27926C26.2206 4.90078 25.0991 3.7793 23.7207 3.7793ZM23.7207 7.00758C23.3191 7.00758 22.9923 6.68086 22.9923 6.27926C22.9923 5.87766 23.3191 5.55094 23.7207 5.55094C24.1223 5.55094 24.449 5.87771 24.449 6.27926C24.449 6.6808 24.1223 7.00758 23.7207 7.00758Z" fill="#EBD9FC"/>
</g>
<defs>
<clipPath id="clip0_226_1015">
<rect width="30" height="30" fill="white"/>
</clipPath>
</defs>
</svg>
