<svg width="80" height="80" viewBox="0 0 80 80" fill="none" xmlns="http://www.w3.org/2000/svg">
<g filter="url(#filter0_b_45_84)">
<path d="M4.16664 40C4.16664 20.2333 20.2333 4.16663 40 4.16663C59.7666 4.16663 75.8333 20.2333 75.8333 40C75.8333 59.7666 59.7666 75.8333 40 75.8333C20.2333 75.8333 4.16664 59.7666 4.16664 40ZM70.8333 40C70.8333 23 57 9.16663 40 9.16663C23 9.16663 9.16664 23 9.16664 40C9.16664 57 23 70.8333 40 70.8333C57 70.8333 70.8333 57 70.8333 40Z" fill="#FBFAFF" fill-opacity="0.5"/>
<path d="M25.7334 35.8C25.7334 35.1667 25.9667 34.5333 26.4667 34.0333C27.4334 33.0667 29.0334 33.0667 30 34.0333L40 44.0333L50 34.0333C50.9667 33.0667 52.5667 33.0667 53.5334 34.0333C54.5 35 54.5 36.6 53.5334 37.5667L41.7667 49.3334C40.8 50.3 39.2 50.3 38.2334 49.3334L26.4667 37.5667C25.9667 37.0667 25.7334 36.4333 25.7334 35.8Z" fill="#FBFAFF" fill-opacity="0.5"/>
</g>
<defs>
<filter id="filter0_b_45_84" x="-395.833" y="-395.833" width="871.667" height="871.667" filterUnits="userSpaceOnUse" color-interpolation-filters="sRGB">
<feFlood flood-opacity="0" result="BackgroundImageFix"/>
<feGaussianBlur in="BackgroundImageFix" stdDeviation="200"/>
<feComposite in2="SourceAlpha" operator="in" result="effect1_backgroundBlur_45_84"/>
<feBlend mode="normal" in="SourceGraphic" in2="effect1_backgroundBlur_45_84" result="shape"/>
</filter>
</defs>
</svg>
