<svg width="30" height="30" viewBox="0 0 30 30" fill="none" xmlns="http://www.w3.org/2000/svg">
<g clip-path="url(#clip0_226_1025)">
<path d="M18.447 8.8604L7.70508 12.441C6.82129 12.7355 6.25 13.5287 6.25 14.4607C6.25 15.3924 6.82129 16.1849 7.70569 16.48L12.067 17.9336L13.5205 22.2955C13.815 23.1786 14.6075 23.7499 15.5392 23.7499C16.4713 23.7499 17.2638 23.1786 17.5589 22.2942L21.1395 11.5524C21.3956 10.783 21.1987 9.94865 20.625 9.37492C20.0513 8.80119 19.2157 8.60313 18.447 8.8604ZM15.5392 20.4467L14.0424 15.9566L9.55261 14.4601L18.5318 11.4669L15.5392 20.4467Z" fill="#EBD9FC"/>
<path d="M15 0C6.72882 0 0 6.72882 0 15C0 23.2712 6.72882 30 15 30C23.2712 30 30 23.2712 30 15C30 6.72882 23.2712 0 15 0ZM15 27.5C8.1076 27.5 2.5 21.8924 2.5 15C2.5 8.1076 8.1076 2.5 15 2.5C21.8924 2.5 27.5 8.1076 27.5 15C27.5 21.8924 21.8924 27.5 15 27.5Z" fill="#EBD9FC"/>
</g>
<defs>
<clipPath id="clip0_226_1025">
<rect width="30" height="30" fill="white"/>
</clipPath>
</defs>
</svg>
